<svg width="129" height="43" viewBox="0 0 129 43" fill="none" xmlns="http://www.w3.org/2000/svg">
<g filter="url(#filter0_n_7_74)">
<path d="M86 0L82.5 5L90 10.5L98 8L96 5L103 3.5L104.5 4L114 8V15L116.5 16L110.5 17.5L109.5 19L112.5 20L115 18L122.348 19.4688L129 31L120.467 33.9668L117 30.5L111.5 32.5L111 35L111.5 40L98 43H43L35.5 36L28.5 38L20.5 33.5L15.5 36L14 35L7 37.5L0 31V27L5.5 29.5L10 26.5V22.5L7 18L9 11L14 9L17 11L20 10L23 11.5L24.5 6L21.5254 3.02539L27 2L35 0H86Z" fill="#7AD753"/>
</g>
<defs>
<filter id="filter0_n_7_74" x="0" y="0" width="129" height="43" filterUnits="userSpaceOnUse" color-interpolation-filters="sRGB">
<feFlood flood-opacity="0" result="BackgroundImageFix"/>
<feBlend mode="normal" in="SourceGraphic" in2="BackgroundImageFix" result="shape"/>
<feTurbulence type="fractalNoise" baseFrequency="0.28571429848670959 0.28571429848670959" stitchTiles="stitch" numOctaves="3" result="noise" seed="7691" />
<feColorMatrix in="noise" type="luminanceToAlpha" result="alphaNoise" />
<feComponentTransfer in="alphaNoise" result="coloredNoise1">
<feFuncA type="discrete" tableValues="0 0 0 0 0 0 0 0 0 1 1 1 1 1 1 1 1 1 1 1 1 1 1 1 1 1 1 1 1 1 1 1 1 1 1 1 1 1 1 1 0 0 0 0 0 0 0 0 0 0 0 0 0 0 0 0 0 0 0 0 0 0 0 0 0 0 0 0 0 0 0 0 0 0 0 0 0 0 0 0 0 0 0 0 0 0 0 0 0 0 0 0 0 0 0 0 0 0 0 0 "/>
</feComponentTransfer>
<feComposite operator="in" in2="shape" in="coloredNoise1" result="noise1Clipped" />
<feFlood flood-color="rgba(0, 0, 0, 0.25)" result="color1Flood" />
<feComposite operator="in" in2="noise1Clipped" in="color1Flood" result="color1" />
<feMerge result="effect1_noise_7_74">
<feMergeNode in="shape" />
<feMergeNode in="color1" />
</feMerge>
</filter>
</defs>
</svg>
