<svg width="16" height="15" viewBox="0 0 16 15" fill="none" xmlns="http://www.w3.org/2000/svg">
<g filter="url(#filter0_d_1_7)">
<path d="M13.5452 1.01169C12.5078 0.535278 11.413 0.195442 10.2882 0.000694617C10.278 -0.00102152 10.2675 0.000460649 10.2582 0.00493739C10.2489 0.00941414 10.2412 0.0166656 10.2362 0.0256946C10.0952 0.275695 9.93917 0.602695 9.83017 0.858695C8.61776 0.674856 7.38457 0.674856 6.17217 0.858695C6.05109 0.573279 5.91353 0.295143 5.76017 0.0256946C5.75515 0.0166656 5.74745 0.00941414 5.73814 0.00493739C5.72883 0.000460649 5.71836 -0.00102152 5.70817 0.000694617C4.58317 0.194695 3.48817 0.534695 2.45117 1.01169C2.44225 1.01501 2.43481 1.02139 2.43017 1.02969C0.356169 4.12869 -0.212831 7.15169 0.0661689 10.1367C0.0681689 10.1514 0.0751689 10.1637 0.0871689 10.1737C1.29514 11.0679 2.64593 11.7509 4.08217 12.1937C4.09231 12.1969 4.10321 12.1968 4.11328 12.1934C4.12335 12.1899 4.13207 12.1834 4.13817 12.1747C4.44684 11.7547 4.7195 11.3117 4.95617 10.8457C4.96109 10.8361 4.96277 10.8252 4.96097 10.8145C4.95917 10.8039 4.95398 10.7941 4.94617 10.7867L4.92817 10.7757C4.49753 10.6097 4.0803 10.4107 3.68017 10.1807C3.669 10.1744 3.66069 10.164 3.65697 10.1517C3.65325 10.1394 3.65439 10.1262 3.66017 10.1147L3.67517 10.0957C3.75984 10.0324 3.8425 9.96736 3.92317 9.90069C3.93024 9.89501 3.93872 9.89136 3.9477 9.89013C3.95668 9.88889 3.96583 9.89013 3.97417 9.89369C6.59317 11.0897 9.42817 11.0897 12.0152 9.89369C12.0238 9.88973 12.0333 9.88828 12.0427 9.88952C12.0521 9.89076 12.0609 9.89463 12.0682 9.90069C12.1488 9.96736 12.2315 10.0324 12.3162 10.0957C12.3232 10.1005 12.3289 10.107 12.3327 10.1147C12.3365 10.1223 12.3383 10.1308 12.3379 10.1393C12.3375 10.1478 12.3349 10.1561 12.3304 10.1633C12.3259 10.1706 12.3196 10.1766 12.3122 10.1807C11.9138 10.4144 11.4959 10.6131 11.0632 10.7747C11.0563 10.7772 11.05 10.7812 11.0448 10.7864C11.0396 10.7915 11.0357 10.7978 11.0332 10.8047C11.0307 10.8114 11.0297 10.8184 11.0303 10.8255C11.0308 10.8326 11.0328 10.8395 11.0362 10.8457C11.2762 11.3107 11.5512 11.7547 11.8532 12.1747C11.8593 12.1834 11.868 12.1899 11.8781 12.1934C11.8881 12.1968 11.899 12.1969 11.9092 12.1937C13.3482 11.7534 14.7014 11.0702 15.9102 10.1737C15.9162 10.1695 15.9212 10.1639 15.9248 10.1575C15.9284 10.1511 15.9306 10.144 15.9312 10.1367C16.2652 6.68569 15.3722 3.68769 13.5652 1.03069C13.5636 1.02616 13.561 1.02207 13.5575 1.01876C13.554 1.01545 13.5498 1.01303 13.5452 1.01169ZM5.34717 8.31869C4.55817 8.31869 3.90917 7.59469 3.90917 6.70669C3.90917 5.81869 4.54617 5.09369 5.34717 5.09369C6.15417 5.09369 6.79717 5.82369 6.78517 6.70669C6.78517 7.59469 6.14817 8.31869 5.34717 8.31869ZM10.6632 8.31869C9.87517 8.31869 9.22517 7.59469 9.22517 6.70669C9.22517 5.81869 9.86217 5.09369 10.6632 5.09369C11.4702 5.09369 12.1142 5.82369 12.1012 6.70669C12.1012 7.59469 11.4702 8.31869 10.6632 8.31869Z" fill="#80D821"/>
</g>
<defs>
<filter id="filter0_d_1_7" x="0" y="0" width="16.0002" height="16.196" filterUnits="userSpaceOnUse" color-interpolation-filters="sRGB">
<feFlood flood-opacity="0" result="BackgroundImageFix"/>
<feColorMatrix in="SourceAlpha" type="matrix" values="0 0 0 0 0 0 0 0 0 0 0 0 0 0 0 0 0 0 127 0" result="hardAlpha"/>
<feOffset dy="4"/>
<feComposite in2="hardAlpha" operator="out"/>
<feColorMatrix type="matrix" values="0 0 0 0 0 0 0 0 0 0 0 0 0 0 0 0 0 0 0.25 0"/>
<feBlend mode="normal" in2="BackgroundImageFix" result="effect1_dropShadow_1_7"/>
<feBlend mode="normal" in="SourceGraphic" in2="effect1_dropShadow_1_7" result="shape"/>
</filter>
</defs>
</svg>
